<svg width="30" height="30" viewBox="0 0 30 30" fill="none" xmlns="http://www.w3.org/2000/svg">
<path d="M30 0H0V30H30V0Z" fill="white"/>
<path d="M15 25.3125C15 25.3125 3.28125 18.75 3.28125 10.7813C3.28149 9.37282 3.76952 8.00794 4.66236 6.91866C5.5552 5.82938 6.79774 5.08295 8.17874 4.80627C9.55973 4.52959 10.9939 4.73974 12.2375 5.40099C13.481 6.06224 14.4572 7.13377 15 8.43341L15 8.43342C15.5428 7.13378 16.5189 6.06224 17.7625 5.40099C19.0061 4.73974 20.4403 4.52959 21.8213 4.80627C23.2023 5.08295 24.4448 5.82938 25.3376 6.91866C26.2305 8.00794 26.7185 9.37282 26.7188 10.7813C26.7188 18.75 15 25.3125 15 25.3125Z" fill="white" stroke="#DDDDDD" strokeWidth="2" strokeLinecap="round" strokeLinejoin="round"/>
</svg>
