<svg width="47" height="46" viewBox="0 0 47 46" fill="none" xmlns="http://www.w3.org/2000/svg">
<path d="M7.88391 11.793H38.9107C39.1192 11.793 39.3251 11.8388 39.5139 11.9271C39.7027 12.0155 39.8697 12.1442 40.0033 12.3042C40.1369 12.4642 40.2337 12.6516 40.2868 12.8532C40.34 13.0547 40.3482 13.2655 40.3109 13.4706L37.2077 30.5481C37.1481 30.876 36.9753 31.1726 36.7194 31.3862C36.4636 31.5998 36.1408 31.7167 35.8075 31.7167H12.708C12.3749 31.7167 12.0523 31.5999 11.7965 31.3865C11.5406 31.1731 11.3678 30.8767 11.308 30.5489L6.80312 5.84519C6.74335 5.51744 6.57049 5.22105 6.31466 5.00765C6.05882 4.79425 5.73623 4.67737 5.40308 4.67737H2.19141" stroke="#FF0000" strokeWidth="3.036" strokeLinecap="round" strokeLinejoin="round"/>
<path d="M13.5761 40.967C14.755 40.967 15.7108 40.0113 15.7108 38.8323C15.7108 37.6534 14.755 36.6976 13.5761 36.6976C12.3971 36.6976 11.4414 37.6534 11.4414 38.8323C11.4414 40.0113 12.3971 40.967 13.5761 40.967Z" fill="#FF0000"/>
<path d="M34.9218 40.967C36.1008 40.967 37.0565 40.0113 37.0565 38.8323C37.0565 37.6534 36.1008 36.6976 34.9218 36.6976C33.7428 36.6976 32.7871 37.6534 32.7871 38.8323C32.7871 40.0113 33.7428 40.967 34.9218 40.967Z" fill="#FF0000"/>
</svg>
