<svg width="47" height="46" viewBox="0 0 47 46" fill="none" xmlns="http://www.w3.org/2000/svg">
<path d="M23.5371 38.5884C23.5371 38.5884 5.74805 28.6266 5.74805 16.53C5.74841 14.392 6.48923 12.3201 7.84457 10.6666C9.1999 9.01304 11.0861 7.87996 13.1824 7.45995C15.2788 7.03995 17.4559 7.35896 19.3436 8.36273C21.2313 9.36651 22.7132 10.9931 23.5371 12.966L23.5371 12.966C24.3611 10.9931 25.8429 9.36652 27.7306 8.36274C29.6183 7.35896 31.7954 7.03995 33.8918 7.45995C35.9881 7.87995 37.8743 9.01304 39.2296 10.6666C40.585 12.3201 41.3258 14.392 41.3262 16.53C41.3262 28.6266 23.5371 38.5884 23.5371 38.5884Z" stroke="#FF0000" strokeWidth="3.036" strokeLinecap="round" strokeLinejoin="round"/>
</svg>
