<svg width="20" height="20" viewBox="0 0 20 20" fill="none" xmlns="http://www.w3.org/2000/svg">
<path d="M7.24112 16.8751H3.75C3.58424 16.8751 3.42527 16.8092 3.30806 16.692C3.19085 16.5748 3.125 16.4158 3.125 16.2501V12.7589C3.125 12.6769 3.14117 12.5956 3.17258 12.5198C3.20398 12.4439 3.25002 12.375 3.30806 12.317L12.6831 2.942C12.8003 2.82479 12.9592 2.75894 13.125 2.75894C13.2908 2.75894 13.4497 2.82479 13.5669 2.942L17.0581 6.43312C17.1753 6.55033 17.2411 6.7093 17.2411 6.87506C17.2411 7.04082 17.1753 7.19979 17.0581 7.317L7.68306 16.692C7.62502 16.75 7.55612 16.7961 7.48029 16.8275C7.40447 16.8589 7.32319 16.8751 7.24112 16.8751Z" stroke="black" stroke-linecap="round" stroke-linejoin="round"/>
<path d="M10.625 5L15 9.375" stroke="black" stroke-linecap="round" stroke-linejoin="round"/>
<path d="M7.46035 16.8351L3.16504 12.5398" stroke="black" stroke-linecap="round" stroke-linejoin="round"/>
</svg>
