<svg width="50" height="50" viewBox="0 0 50 50" fill="none" xmlns="http://www.w3.org/2000/svg">
<path d="M25 39.0625C32.7665 39.0625 39.0625 32.7665 39.0625 25C39.0625 17.2335 32.7665 10.9375 25 10.9375C17.2335 10.9375 10.9375 17.2335 10.9375 25C10.9375 32.7665 17.2335 39.0625 25 39.0625Z" stroke="black" stroke-linecap="round" stroke-linejoin="round"/>
<path d="M25 17.1875V25H32.8125" stroke="black" stroke-linecap="round" stroke-linejoin="round"/>
<path d="M17.1875 13.3062L18.5173 5.97128C18.5826 5.61109 18.7722 5.28526 19.0532 5.05064C19.3342 4.81602 19.6886 4.6875 20.0547 4.6875H29.9453C30.3114 4.6875 30.6658 4.81602 30.9468 5.05064C31.2278 5.28527 31.4174 5.61109 31.4827 5.97128L32.8125 13.3062" stroke="black" stroke-linecap="round" stroke-linejoin="round"/>
<path d="M17.1875 36.6937L18.5173 44.0286C18.5826 44.3888 18.7722 44.7146 19.0532 44.9492C19.3342 45.1838 19.6886 45.3124 20.0547 45.3124H29.9453C30.3114 45.3124 30.6658 45.1838 30.9468 44.9492C31.2278 44.7146 31.4174 44.3888 31.4827 44.0286L32.8125 36.6936" stroke="black" stroke-linecap="round" stroke-linejoin="round"/>
</svg>
